# xmcd CD database file
#
# Track frame offsets:
#	150
#	9861
#	17841
#	26326
#	36328
#	46357
#	56276
#	67672
#	75654
#	84048
#	96385
#	108614
#	119529
#	131518
#	132964
#	147133
#	157386
#	167578
#	179490
#	189193
#	200421
#	212381
#	223221
#	232268
#	241951
#	249202
#	259728
#	269813
#	282599
#	291028
#	298545
#	309670
#
# Disc length: 4251 seconds
#
# Revision: 1
# Processed by: cddbd v1.5.2PL0 Copyright (c) Steve Scherf et al.
# Submitted via: CDex 1.94
#
DISCID=d4109920
DTITLE=Various Artist - 63 Nuggets From The Cramps' Record Vault 1
DYEAR=1900
DGENRE=Blues
TTITLE0=Benn Joe Zeppa - Shame On You Miss Lindy
TTITLE1=The Sabres - My Hot Mama
TTITLE2=The Majestics - Riding By
TTITLE3=The Catalinas - Destruction
TTITLE4=Kip Tyler - Rumble Rock
TTITLE5=Ted Self - Little Angel (Come And Rock Me To Sleep)
TTITLE6=Gene Maltais - Deep River Blues
TTITLE7=The Ramblers - Devil Train
TTITLE8=The Noisemakers - Panic
TTITLE9=The Party Rockers - House Party
TTITLE10=Lord Luther with The Kingsmen - (I Was A) Teenage Creature
TTITLE11=Betty McQuade - Midnight Bus
TTITLE12=Mississippi Mud Mashers - Moonglow
TTITLE13=Harry Coons and Richard Campbell - Watusi Apb
TTITLE14=The Medallions - Behind The Door
TTITLE15=The Enchanters - Cafe Bohemian
TTITLE16=Jackie Cannon - Chill Bumps
TTITLE17=The Vice-Roys - Moasin'
TTITLE18=Bob Taylor - Wowsville
TTITLE19=James 'Red' Holloway - Ala Carte
TTITLE20=Red Hewitt and The Buccaneers - Dj Blues
TTITLE21=Joe Wallace - Leopard Man
TTITLE22=Jay Fanning - It's Love
TTITLE23=Clyde Stacey - Hoy Hoy
TTITLE24=Jack Hammer - Wiggling Fool
TTITLE25=Buddy Miller - Teen Twist
TTITLE26=Bobby Lonero - Little Bit
TTITLE27=The Cats and The Fiddle - Killin' Jive
TTITLE28=Billy Devroe and The Devilaires - I'm Packin'
TTITLE29=Johnny and The Baa-Baas - Move Along
TTITLE30=The Midnighters - Sexy Ways
TTITLE31=The Highlights - Ah So!
EXTD=
EXTT0=
EXTT1=
EXTT2=
EXTT3=
EXTT4=
EXTT5=
EXTT6=
EXTT7=
EXTT8=
EXTT9=
EXTT10=
EXTT11=
EXTT12=
EXTT13=
EXTT14=
EXTT15=
EXTT16=
EXTT17=
EXTT18=
EXTT19=
EXTT20=
EXTT21=
EXTT22=
EXTT23=
EXTT24=
EXTT25=
EXTT26=
EXTT27=
EXTT28=
EXTT29=
EXTT30=
EXTT31=
PLAYORDER=
